<svg width="50" height="50" viewBox="0 0 50 50" fill="none" xmlns="http://www.w3.org/2000/svg">
<path fill-rule="evenodd" clip-rule="evenodd" d="M7.3335 14.5833C7.3335 14.031 7.78121 13.5833 8.3335 13.5833H41.6668C42.2191 13.5833 42.6668 14.031 42.6668 14.5833C42.6668 15.1355 42.2191 15.5833 41.6668 15.5833H8.3335C7.78121 15.5833 7.3335 15.1355 7.3335 14.5833ZM7.3335 24.9999C7.3335 24.4476 7.78121 23.9999 8.3335 23.9999L41.6668 23.9999C42.2191 23.9999 42.6668 24.4476 42.6668 24.9999C42.6668 25.5522 42.2191 25.9999 41.6668 25.9999L8.3335 25.9999C7.78121 25.9999 7.3335 25.5522 7.3335 24.9999ZM8.3335 34.4166C7.78121 34.4166 7.3335 34.8643 7.3335 35.4166C7.3335 35.9689 7.78121 36.4166 8.3335 36.4166H41.6668C42.2191 36.4166 42.6668 35.9689 42.6668 35.4166C42.6668 34.8643 42.2191 34.4166 41.6668 34.4166H8.3335Z" fill="white"/>
</svg>
